<svg width="15" height="13" viewBox="0 0 15 13" fill="none" xmlns="http://www.w3.org/2000/svg">
<path d="M3.568 7.408C2.672 7.408 1.968 7.11467 1.456 6.528C0.954667 5.93067 0.704 5.06133 0.704 3.92C0.704 2.78933 0.954667 1.93067 1.456 1.344C1.968 0.746666 2.672 0.447999 3.568 0.447999C4.47467 0.447999 5.184 0.746666 5.696 1.344C6.208 1.93067 6.464 2.78933 6.464 3.92C6.464 5.06133 6.208 5.93067 5.696 6.528C5.184 7.11467 4.47467 7.408 3.568 7.408ZM3.456 12L10.048 0.608H11.824L5.216 12H3.456ZM3.568 6.112C3.984 6.112 4.288 5.94133 4.48 5.6C4.672 5.25867 4.768 4.69867 4.768 3.92C4.768 3.16267 4.66667 2.61333 4.464 2.272C4.272 1.92 3.97333 1.744 3.568 1.744C3.17333 1.744 2.88 1.92 2.688 2.272C2.496 2.61333 2.4 3.16267 2.4 3.92C2.4 4.688 2.496 5.248 2.688 5.6C2.88 5.94133 3.17333 6.112 3.568 6.112ZM11.696 12.112C10.7893 12.112 10.08 11.8187 9.568 11.232C9.06667 10.6347 8.816 9.76 8.816 8.608C8.816 7.47733 9.06667 6.61867 9.568 6.032C10.08 5.44533 10.7893 5.152 11.696 5.152C12.6027 5.152 13.3067 5.44533 13.808 6.032C14.32 6.61867 14.576 7.48267 14.576 8.624C14.576 9.76533 14.32 10.6347 13.808 11.232C13.3067 11.8187 12.6027 12.112 11.696 12.112ZM11.696 10.816C12.1013 10.816 12.4 10.6453 12.592 10.304C12.784 9.952 12.88 9.392 12.88 8.624C12.88 7.86667 12.7787 7.31733 12.576 6.976C12.384 6.624 12.0907 6.448 11.696 6.448C11.2907 6.448 10.992 6.624 10.8 6.976C10.608 7.31733 10.512 7.86667 10.512 8.624C10.512 9.392 10.608 9.952 10.8 10.304C10.992 10.6453 11.2907 10.816 11.696 10.816Z" fill="#303030"/>
</svg>
