<svg width="20" height="16" viewBox="0 0 20 16" fill="none" xmlns="http://www.w3.org/2000/svg">
<path d="M0.248 14V2.72H5.176C6.41333 2.72 7.368 3.01333 8.04 3.6C8.72267 4.18667 9.064 5.00267 9.064 6.048C9.064 6.74133 8.90933 7.33333 8.6 7.824C8.30133 8.31467 7.86933 8.69333 7.304 8.96C6.73867 9.216 6.072 9.344 5.304 9.344L5.528 9.04H6.072C6.52 9.04 6.92 9.15733 7.272 9.392C7.624 9.62667 7.912 9.984 8.136 10.464L9.784 14H7.512L5.848 10.336C5.69867 9.96267 5.46933 9.71733 5.16 9.6C4.86133 9.48267 4.49867 9.424 4.072 9.424H2.312V14H0.248ZM2.312 7.904H4.84C5.56533 7.904 6.11467 7.75467 6.488 7.456C6.872 7.14667 7.064 6.69867 7.064 6.112C7.064 5.52533 6.872 5.08267 6.488 4.784C6.11467 4.48533 5.56533 4.336 4.84 4.336H2.312V7.904ZM14.3944 15.84V13.744L14.7624 14.096C14.2504 14.0747 13.749 14.016 13.2584 13.92C12.7784 13.824 12.325 13.6853 11.8984 13.504C11.4824 13.312 11.109 13.0827 10.7784 12.816L11.4024 11.2C11.9037 11.5733 12.453 11.8613 13.0504 12.064C13.6477 12.2667 14.3037 12.368 15.0184 12.368C15.8184 12.368 16.3997 12.2293 16.7624 11.952C17.1357 11.664 17.3224 11.3067 17.3224 10.88C17.3224 10.528 17.189 10.2453 16.9224 10.032C16.6664 9.81867 16.2237 9.64267 15.5944 9.504L13.8984 9.136C13.2477 8.98667 12.7037 8.77867 12.2664 8.512C11.8397 8.24533 11.5197 7.90933 11.3064 7.504C11.1037 7.088 11.0024 6.608 11.0024 6.064C11.0024 5.43467 11.157 4.87467 11.4664 4.384C11.7757 3.88267 12.2077 3.48267 12.7624 3.184C13.317 2.88533 13.9677 2.70933 14.7144 2.656L14.3944 2.896V0.879999H15.9944V2.896L15.6584 2.64C16.2664 2.672 16.8637 2.79467 17.4504 3.008C18.0477 3.22133 18.5437 3.53067 18.9384 3.936L18.3304 5.472C17.925 5.09867 17.461 4.82133 16.9384 4.64C16.4157 4.448 15.845 4.352 15.2264 4.352C14.5224 4.352 13.9677 4.50667 13.5624 4.816C13.157 5.11467 12.9544 5.50933 12.9544 6C12.9544 6.36267 13.077 6.66133 13.3224 6.896C13.5784 7.12 13.9997 7.296 14.5864 7.424L16.2824 7.792C17.3064 8.00533 18.0637 8.35733 18.5544 8.848C19.0557 9.328 19.3064 9.96267 19.3064 10.752C19.3064 11.3707 19.1517 11.92 18.8424 12.4C18.533 12.8693 18.1064 13.248 17.5624 13.536C17.029 13.8133 16.405 13.9893 15.6904 14.064L15.9944 13.728V15.84H14.3944Z" fill="#303030"/>
</svg>
